HIERARCHY
ROOT Hips
{
	OFFSET 0.000000 0.000000 0.000000
	CHANNELS 6 Xposition Yposition Zposition Zrotation Yrotation Xrotation 
	JOINT LHipJoint
	{
		OFFSET 0.000000 0.000000 0.000000
		CHANNELS 3 Zrotation Yrotation Xrotation
		JOINT LeftUpLeg
		{
			OFFSET 1.363060 -1.794630 0.839290
			CHANNELS 3 Zrotation Yrotation Xrotation
			JOINT LeftLeg
			{
				OFFSET 2.448110 -6.726130 0.000000
				CHANNELS 3 Zrotation Yrotation Xrotation
				JOINT LeftFoot
				{
					OFFSET 2.562200 -7.039590 0.000000
					CHANNELS 3 Zrotation Yrotation Xrotation
					JOINT LeftToeBase
					{
						OFFSET 0.157640 -0.433110 2.322550
						CHANNELS 3 Zrotation Yrotation Xrotation
						End Site
						{
							OFFSET 0.000000 0.000000 0.000000
						}
					}
				}
			}
		}
	}
	JOINT RHipJoint
	{
		OFFSET 0.000000 0.000000 0.000000
		CHANNELS 3 Zrotation Yrotation Xrotation
		JOINT RightUpLeg
		{
			OFFSET -1.305520 -1.794630 0.839290
			CHANNELS 3 Zrotation Yrotation Xrotation
			JOINT RightLeg
			{
				OFFSET -2.542530 -6.985550 0.000000
				CHANNELS 3 Zrotation Yrotation Xrotation
				JOINT RightFoot
				{
					OFFSET -2.568260 -7.056230 0.000000
					CHANNELS 3 Zrotation Yrotation Xrotation
					JOINT RightToeBase
					{
						OFFSET -0.164730 -0.452590 2.363150
						CHANNELS 3 Zrotation Yrotation Xrotation
						End Site
						{
							OFFSET 0.000000 0.000000 0.000000
						}
					}
				}
			}
		}
	}
	JOINT LowerBack
	{
		OFFSET 0.000000 0.000000 0.000000
		CHANNELS 3 Zrotation Yrotation Xrotation
		JOINT Spine
		{
			OFFSET 0.028270 2.035590 -0.193380
			CHANNELS 3 Zrotation Yrotation Xrotation
			JOINT Spine1
			{
				OFFSET 0.056720 2.048850 -0.042750
				CHANNELS 3 Zrotation Yrotation Xrotation
				JOINT Neck
				{
					OFFSET 0.000000 0.000000 0.000000
					CHANNELS 3 Zrotation Yrotation Xrotation
					JOINT Neck1
					{
						OFFSET -0.054170 1.746240 0.172020
						CHANNELS 3 Zrotation Yrotation Xrotation
						JOINT Head
						{
							OFFSET 0.104070 1.761360 -0.123970
							CHANNELS 3 Zrotation Yrotation Xrotation
							End Site
							{
								OFFSET 0.000000 0.000000 0.000000
							}
						}
					}
				}
				JOINT LeftShoulder
				{
					OFFSET 0.000000 0.000000 0.000000
					CHANNELS 3 Zrotation Yrotation Xrotation
					JOINT LeftArm
					{
						OFFSET 3.362410 1.200890 -0.311210
						CHANNELS 3 Zrotation Yrotation Xrotation
						JOINT LeftForeArm
						{
							OFFSET 4.983000 -0.000000 -0.000000
							CHANNELS 3 Zrotation Yrotation Xrotation
							JOINT LeftHand
							{
								OFFSET 3.483560 -0.000000 -0.000000
								CHANNELS 3 Zrotation Yrotation Xrotation
								JOINT LeftFingerBase
								{
									OFFSET 0.000000 0.000000 0.000000
									CHANNELS 3 Zrotation Yrotation Xrotation
									JOINT LeftHandIndex1
									{
										OFFSET 0.715260 -0.000000 -0.000000
										CHANNELS 3 Zrotation Yrotation Xrotation
										End Site
										{
											OFFSET 0.000000 0.000000 0.000000
										}
									}
								}
								JOINT LThumb
								{
									OFFSET 0.000000 0.000000 0.000000
									CHANNELS 3 Zrotation Yrotation Xrotation
									End Site
									{
										OFFSET 0.000000 0.000000 0.000000
									}
								}
							}
						}
					}
				}
				JOINT RightShoulder
				{
					OFFSET 0.000000 0.000000 0.000000
					CHANNELS 3 Zrotation Yrotation Xrotation
					JOINT RightArm
					{
						OFFSET -3.136600 1.374050 -0.404650
						CHANNELS 3 Zrotation Yrotation Xrotation
						JOINT RightForeArm
						{
							OFFSET -5.241900 -0.000000 -0.000000
							CHANNELS 3 Zrotation Yrotation Xrotation
							JOINT RightHand
							{
								OFFSET -3.444170 -0.000000 -0.000000
								CHANNELS 3 Zrotation Yrotation Xrotation
								JOINT RightFingerBase
								{
									OFFSET 0.000000 0.000000 0.000000
									CHANNELS 3 Zrotation Yrotation Xrotation
									JOINT RightHandIndex1
									{
										OFFSET -0.622530 -0.000000 -0.000000
										CHANNELS 3 Zrotation Yrotation Xrotation
										End Site
										{
											OFFSET 0.000000 0.000000 0.000000
										}
									}
								}
								JOINT RThumb
								{
									OFFSET 0.000000 0.000000 0.000000
									CHANNELS 3 Zrotation Yrotation Xrotation
									End Site
									{
										OFFSET 0.000000 0.000000 0.000000
									}
								}
							}
						}
					}
				}
			}
		}
	}
}
MOTION
Frames: 6
Frame Time: 0.008333
5.302056 17.671736 -0.276222 -161.902030 -83.528707 155.719343 6.847264 1.381590 0.185044 -26.465485 -15.389470 7.339532 -0.792546 7.648181 22.838154 -3.671344 19.681462 -21.125882 0.035700 1.220000 3.354400 -10.405647 0.257309 -3.080209 37.310320 12.491710 11.493030 -0.102355 -6.169221 17.420329 3.257201 -21.127602 -22.064100 -0.731500 5.464300 -15.237600 -1.202443 1.945723 5.338316 1.867397 2.824279 3.407000 -5.470303 1.144485 5.351031 6.757285 1.974408 1.046558 8.065321 0.867356 9.482376 -2.586200 0.931400 1.596300 7.990553 2.233908 -0.151467 -89.750295 -7.886468 3.676194 14.268604 -17.738023 -2.673419 -1.885208 -2.480805 6.935426 17.597782 6.324764 3.144400 -7.125000 0.000000 0.000000 -6.734400 39.495300 0.918400 -10.406920 -3.860020 0.605677 104.923162 0.314825 35.286502 -14.623472 21.948898 -4.566090 0.501523 2.239882 -17.009112 -14.279238 2.523644 -0.128200 7.125000 0.000000 0.000000 8.708600 -29.444900 3.337500 
5.302625 17.670256 -0.269735 -162.178836 -83.480638 155.916134 6.846281 1.383220 0.183522 -26.493883 -15.282537 7.341752 -0.776048 7.675778 22.927158 -3.630414 19.558993 -21.148575 0.040600 1.301100 3.577800 -10.408275 0.265029 -3.075927 37.347523 12.611874 11.653164 -0.097537 -6.145039 17.388100 3.227934 -21.092573 -22.272460 -0.684800 5.290600 -14.739300 -1.310178 1.931885 5.290809 1.868645 2.810168 3.393971 -5.411413 1.120635 5.394852 6.731953 1.972337 0.944641 8.023096 0.864779 9.448815 -2.607900 0.926200 1.610500 7.982585 2.129527 -0.115243 -89.750032 -8.461645 2.756350 14.217128 -17.589562 -2.573449 -2.027772 -2.500857 5.915696 18.475478 6.364806 3.351000 -7.125000 0.000000 0.000000 -5.819400 39.630300 0.773200 -10.391150 -3.783084 0.596862 104.851087 0.459190 35.190383 -14.601391 21.905531 -4.545358 0.507488 2.224347 -16.751990 -14.249112 2.575514 -0.145400 7.125000 0.000000 0.000000 8.732800 -29.379300 3.360800 
5.303421 17.657168 -0.259719 -162.492507 -83.519305 156.121804 6.850461 1.394063 0.202266 -26.588449 -15.216152 7.399082 -0.771060 7.677316 22.944091 -3.601129 19.460600 -21.127581 0.043300 1.343000 3.693200 -10.380147 0.233597 -3.098719 37.209994 12.188096 11.709556 -0.109336 -6.149155 17.425496 3.251920 -21.080198 -22.003172 -0.775300 5.621900 -15.691200 -1.378170 1.886252 5.324478 1.862063 2.755589 3.342933 -5.414798 1.081890 5.270271 6.712637 1.961134 1.025021 7.971910 0.859402 9.433225 -2.634900 0.921300 1.588200 7.974290 2.065996 -0.090857 -89.803857 -8.859250 2.045053 14.155882 -17.421582 -2.468743 -2.154335 -2.596716 5.124190 19.237804 6.903503 3.753200 -7.125000 0.000000 0.000000 -5.106400 40.364000 0.585400 -10.387197 -3.735249 0.592769 104.808978 0.438436 35.042639 -14.553618 21.843645 -4.519539 0.500037 2.213070 -16.542400 -14.130141 2.538150 -0.135500 7.125000 0.000000 0.000000 8.841900 -29.410400 3.397100 
5.302283 17.656940 -0.248907 -163.322719 -83.628327 156.885578 6.857804 1.375738 0.202419 -26.796729 -15.214450 7.406696 -0.751376 7.729665 23.077757 -3.577879 19.416294 -21.170554 0.040400 1.296700 3.565600 -10.358855 0.206982 -3.117886 36.962801 11.966920 11.810102 -0.104145 -6.087864 17.301122 3.231023 -20.964422 -21.916250 -0.774700 5.619900 -15.685400 -1.476851 1.823420 5.057369 1.847012 2.682891 3.395148 -5.430498 1.042478 5.574954 6.743255 2.035878 1.023462 7.931860 0.955708 9.271297 -2.666200 0.947300 1.508800 7.935485 1.930661 -0.037895 -89.917432 -9.479253 1.420024 14.131533 -17.292590 -2.373802 -2.319357 -2.693016 4.730078 20.196493 7.567935 4.280800 -7.125000 0.000000 0.000000 -4.211500 41.276900 0.387500 -10.346948 -3.657557 0.603692 104.782456 0.815449 34.832985 -14.454104 21.643996 -4.438261 0.507681 2.183631 -16.373672 -14.023713 2.657792 -0.174500 7.125000 0.000000 0.000000 8.917200 -29.258400 3.459300 
5.301373 17.661379 -0.238778 -162.581942 -83.549380 156.105817 6.864235 1.393285 0.214215 -26.733176 -15.179016 7.394015 -0.735665 7.756177 23.164406 -3.570480 19.402729 -21.204352 0.038600 1.268400 3.487700 -10.350008 0.222909 -3.114588 37.018340 12.016517 11.902548 -0.089464 -6.037861 17.180247 3.188680 -20.847236 -22.036427 -0.727600 5.450100 -15.197100 -1.306878 1.796207 5.103468 1.848594 2.654565 3.321010 -5.536304 1.036985 5.358567 6.706749 2.013173 1.023006 7.953049 0.924027 9.351455 -2.649400 0.942700 1.550200 7.953890 1.951342 -0.064652 -90.134260 -9.406903 1.495782 14.240209 -17.427898 -2.397962 -2.422558 -2.748150 4.360293 20.918601 7.769965 4.565900 -7.125000 0.000000 0.000000 -3.499000 41.629500 0.291300 -10.363145 -3.649271 0.599833 104.786384 0.755355 34.608965 -14.402448 21.568692 -4.403088 0.513660 2.167794 -16.222749 -13.982220 2.718001 -0.194000 7.125000 0.000000 0.000000 8.946100 -29.181600 3.487300 
5.304901 17.650225 -0.230697 -160.152993 -83.292777 153.683433 6.881785 1.444139 0.232697 -26.386705 -15.184769 7.303167 -0.713986 7.788016 23.275481 -3.579775 19.424999 -21.233677 0.036600 1.235000 3.395500 -10.331922 0.241260 -3.150865 37.335424 11.698020 11.937191 -0.072988 -6.012943 17.065812 3.291571 -21.069649 -21.582705 -0.896500 6.034500 -16.884600 -0.918287 1.779702 4.891627 1.891159 2.639315 3.347117 -5.611129 1.045605 5.570026 6.658019 2.040300 0.800983 7.924179 0.960742 9.405831 -2.650900 0.967200 1.626000 7.965921 1.934265 -0.076157 -90.423455 -9.520695 1.674990 14.424071 -17.695792 -2.498130 -2.388391 -2.757827 4.436670 20.819251 7.707304 4.515000 -7.125000 0.000000 0.000000 -3.614800 41.562100 0.307000 -10.358618 -3.612108 0.597465 104.761560 0.964468 34.503483 -14.421708 21.577981 -4.405438 0.498423 2.181583 -16.084560 -13.969328 2.521383 -0.135500 7.125000 0.000000 0.000000 8.987100 -29.402700 3.455800 
